<?xml version="1.0" standalone="no"?>
<!DOCTYPE svg PUBLIC "-//W3C//DTD SVG 20010904//EN"
 "http://www.w3.org/TR/2001/REC-SVG-20010904/DTD/svg10.dtd">
<svg version="1.0" xmlns="http://www.w3.org/2000/svg"
 width="700.000000pt" height="700.000000pt" viewBox="0 0 700.000000 700.000000"
 preserveAspectRatio="xMidYMid meet">
<metadata>
Created by potrace 1.14, written by Peter Selinger 2001-2017
</metadata>
<g transform="translate(0.000000,700.000000) scale(0.100000,-0.100000)"
fill="#000000" stroke="none">
<path d="M3280 6994 c-19 -2 -84 -9 -145 -14 -578 -56 -1180 -283 -1660 -625
-236 -169 -527 -443 -709 -670 -365 -456 -619 -1023 -715 -1597 -38 -225 -45
-321 -45 -583 -1 -414 48 -728 170 -1100 257 -781 795 -1460 1499 -1891 439
-269 920 -432 1460 -496 145 -17 576 -17 730 0 797 88 1508 423 2074 977 596
583 943 1294 1043 2140 17 144 17 586 0 730 -100 847 -445 1554 -1043 2141
-552 541 -1249 874 -2029 970 -117 15 -553 27 -630 18z m2630 -2098 c0 -3 -58
-124 -129 -270 l-130 -266 -1768 0 -1767 0 69 -70 69 -70 744 0 743 0 -133
-260 -133 -260 -482 0 c-323 0 -483 -3 -483 -10 0 -6 109 -193 241 -417 133
-223 243 -413 246 -422 3 -13 -271 -507 -296 -534 -4 -4 -333 561 -731 1255
-399 695 -733 1278 -743 1296 l-19 32 2351 0 c1293 0 2351 -2 2351 -4z m-409
-768 c-27 -51 -90 -167 -139 -258 l-90 -165 -271 -3 -271 -2 -24 -38 c-13 -20
-313 -568 -666 -1217 -354 -649 -652 -1197 -664 -1217 l-22 -36 -153 266 c-85
147 -154 271 -154 278 0 6 246 450 546 987 301 537 547 979 547 982 0 3 -122
5 -271 5 -149 0 -269 4 -267 8 2 5 66 120 143 255 l140 246 833 1 833 0 -50
-92z"/>
</g>
</svg>
