<?xml version="1.0" encoding="UTF-8"?><svg id="a" xmlns="http://www.w3.org/2000/svg" viewBox="0 0 388.13 176.71"><defs><style>.b{fill:#fff;}.c{fill:#bdbcbc;}.d{fill:#e94859;}.e{fill:#13100d;}</style></defs><circle class="d" cx="88.35" cy="88.35" r="88.35"/><polygon class="b" points="144.82 62.2 149.3 53.03 30.51 53.03 68.06 118.53 75.88 104.9 63.13 83.43 81.59 83.43 87.61 83.43 94.42 70.21 89.16 70.21 56.87 70.21 53.4 66.66 91.2 66.66 142.63 66.66 144.82 62.2"/><polygon class="b" points="84.71 146.67 119.19 83.43 132.95 83.43 137.76 74.56 140.19 70.1 98.18 70.1 90.8 82.98 96.57 82.98 104.7 82.98 76.75 132.89 84.71 146.67"/><g><path class="e" d="M216.5,55.21v16.65h29.16v11.7h-29.16v22.95h-14.58V43.51h47.61v11.7h-33.03Z"/><path class="e" d="M258.89,78.79V43.51h14.58v34.74c0,11.97,5.22,16.92,14.04,16.92s14.04-4.95,14.04-16.92V43.51h14.4v35.28c0,18.54-10.62,28.8-28.53,28.8s-28.53-10.26-28.53-28.8Z"/><path class="e" d="M388.13,43.51v63h-11.97l-31.41-38.25v38.25h-14.4V43.51h12.06l31.32,38.25V43.51h14.4Z"/><path class="c" d="M211.71,119.54h-10.56v-3.83h25.48v3.83h-10.56v26.98h-4.36v-26.98Z"/><path class="c" d="M228.48,131.11c0-9.02,6.95-15.75,16.41-15.75s16.33,6.69,16.33,15.75-6.95,15.75-16.33,15.75-16.41-6.73-16.41-15.75Zm28.34,0c0-6.82-5.1-11.84-11.93-11.84s-12.01,5.02-12.01,11.84,5.1,11.84,12.01,11.84,11.93-5.02,11.93-11.84Z"/><path class="c" d="M277.98,132.83l-5.63,5.72v7.97h-4.4v-30.8h4.4v17.21l16.72-17.21h5.02l-13.16,13.86,13.99,16.94h-5.15l-11.79-13.69Z"/><path class="c" d="M321.93,142.68v3.83h-22.36v-30.8h21.74v3.83h-17.34v9.46h15.45v3.74h-15.45v9.95h17.95Z"/><path class="c" d="M355.55,115.71v30.8h-3.61l-18.48-22.97v22.97h-4.4v-30.8h3.61l18.48,22.97v-22.97h4.4Z"/><path class="c" d="M387.8,142.68v3.83h-25.74v-2.99l19.36-23.98h-19.05v-3.83h24.86v2.99l-19.28,23.98h19.85Z"/></g></svg>