<svg xmlns="http://www.w3.org/2000/svg" width="33.803" height="38.632" viewBox="0 0 33.803 38.632">
  <g id="icon" transform="translate(0 0)">
    <path id="Icon_awesome-lock" data-name="Icon awesome-lock" d="M30.181,16.9H28.37V11.469a11.469,11.469,0,0,0-22.938,0V16.9H3.622A3.623,3.623,0,0,0,0,20.523V35.01a3.623,3.623,0,0,0,3.622,3.622H30.181A3.623,3.623,0,0,0,33.8,35.01V20.523A3.623,3.623,0,0,0,30.181,16.9Zm-7.847,0H11.469V11.469a5.433,5.433,0,0,1,10.865,0Z" transform="translate(0 0)" fill="#1c2340"/>
  </g>
</svg>
