<svg xmlns="http://www.w3.org/2000/svg" xmlns:xlink="http://www.w3.org/1999/xlink" width="35.972" height="31.76" viewBox="0 0 35.972 31.76">
  <defs>
    <clipPath id="clip-path">
      <rect width="35.972" height="31.76" fill="none"/>
    </clipPath>
  </defs>
  <g id="icon" clip-path="url(#clip-path)">
    <g id="icon-2" data-name="icon" transform="translate(0 0)">
      <g id="networking" transform="translate(0 0)">
        <path id="networking-2" data-name="networking" d="M10.3,16.045a.915.915,0,0,1,.915-.915H24.062a.915.915,0,1,1,0,1.829H11.217A.915.915,0,0,1,10.3,16.045ZM35.972,23V39.441a3.832,3.832,0,0,1-3.832,3.832H3.832A3.832,3.832,0,0,1,0,39.441V23a3.832,3.832,0,0,1,3.832-3.832H6.671V14.036a2.525,2.525,0,0,1,2.523-2.523H26.438a2.525,2.525,0,0,1,2.523,2.523v5.135h3.18A3.832,3.832,0,0,1,35.972,23ZM33.2,38.912l-11.48-7.471,11.508-8.115a.915.915,0,1,0-1.054-1.495l-5.045,3.557V14.036a.694.694,0,0,0-.693-.693H9.194a.694.694,0,0,0-.693.693V21.88h0v3.294L3.833,21.9a.915.915,0,0,0-1.051,1.5l11.566,8.123-11.54,7.51a.915.915,0,1,0,1,1.533l12.118-7.887c.012-.008.021-.018.033-.027l.515.362a2.641,2.641,0,0,0,3.033,0l.607-.428L32.2,40.445a.915.915,0,1,0,1-1.533ZM11.217,21.049H24.062a.915.915,0,1,0,0-1.829H11.217a.915.915,0,1,0,0,1.829Zm0,4.09H24.062a.915.915,0,1,0,0-1.829H11.217a.915.915,0,0,0,0,1.829Z" transform="translate(0 -11.513)" fill="#1c2340"/>
      </g>
    </g>
  </g>
</svg>
