<svg xmlns="http://www.w3.org/2000/svg" viewBox="0 0 1100.91 192.52"><defs><style>.cls-1{fill:#fff;}</style></defs><title>Asset 2</title><g id="Layer_2" data-name="Layer 2"><g id="Layer_1-2" data-name="Layer 1"><path class="cls-1" d="M175.68,20.25q20.25,16,20.25,45,0,23.15-11.44,40.77t-32.61,27.35q-21.17,9.73-49,9.73H71l-8.94,45.24H0L36.82,4.21h81.79Q155.43,4.21,175.68,20.25ZM126,88.76q7.1-6.44,7.1-18,0-18.67-23.14-18.67H89.16L80.48,95.21H106Q118.87,95.21,126,88.76Z"/><path class="cls-1" d="M411.07,4.21l-36.82,184.1h-51l-52.86-85.74-17.09,85.74H192.78L229.6,4.21h51l52.86,85.74,17.1-85.74Z"/><path class="cls-1" d="M545.46,91.26h53.92l-15.78,79.43a112.79,112.79,0,0,1-33.79,16.17,143.26,143.26,0,0,1-40.9,5.65q-28.15,0-49.58-10.39t-33.14-29.06q-11.71-18.67-11.7-42.87,0-32.08,15-57.07a104,104,0,0,1,41.82-39.06Q498.12,0,532.83,0q57.33,0,83.63,36L572,70.48q-8.68-11-18.67-15.65t-23.41-4.6q-16,0-28,7.1a47.41,47.41,0,0,0-18.41,19.86q-6.45,12.76-6.44,29.06t10.78,26.17q10.78,9.86,29.72,9.86a62.18,62.18,0,0,0,18.15-2.63Z"/><path class="cls-1" d="M792.28,108q6.44,9.07,6.44,21.7,0,29.19-24.06,43.92t-61.94,14.73H606.47L643.29,4.21h97.57q32.35,0,49.18,11.44t16.83,32.48a44.45,44.45,0,0,1-8.68,27.22Q789.52,87.06,774,93.63,785.84,98.89,792.28,108ZM731.4,140.57q5.78-4.34,5.79-12.49a10.41,10.41,0,0,0-4.34-8.94A18.08,18.08,0,0,0,721.93,116H682l-5.79,28.93h40Q725.61,144.91,731.4,140.57Zm-35.77-93L690.11,75h31.56q20.52,0,20.51-16A9.59,9.59,0,0,0,738,50.5q-4.21-2.89-12.1-2.89Z"/><path class="cls-1" d="M973.62,130.19H872.89q1.84,8.94,8.68,12.89T900.51,147q17.88,0,31.3-10l24.72,36q-26.3,17.89-62.86,17.88-23.41,0-41.42-8.15t-27.88-23.14q-9.86-15-9.86-35.24,0-23.67,11.18-42.47a77.83,77.83,0,0,1,31.43-29.46q20.25-10.65,46.55-10.65,22.62,0,39.19,8T968.1,72.19q8.68,14.34,8.68,33A107.18,107.18,0,0,1,973.62,130.19ZM884.86,87.45a30.39,30.39,0,0,0-9.6,14.07h47.08q0-8.94-5.79-14.07T901,82.32Q891.3,82.32,884.86,87.45Z"/><path class="cls-1" d="M1055.68,131.76a31.76,31.76,0,0,0-.53,4.21q0,10,11,10,5.78,0,13.15-3.42l6.84,40q-15.25,8.42-38.92,8.42-24.46,0-38.53-11.7t-14.07-33a67.74,67.74,0,0,1,1.58-14.2l7.36-36.29h-20l8.68-43.4H1012l8.15-40.24h59.44l-8.15,40.24h29.46l-8.68,43.4h-29.46Z"/></g></g></svg>